Coordinates
version=1
nRows=13
nColumns=40
inDegrees=yes

Units are S.I. units (second, meters, Newtons, ...)
Angles are in degrees.

endheader
time	pelvis_tilt	pelvis_list	pelvis_rotation	pelvis_tx	pelvis_ty	pelvis_tz	hip_flexion_r	hip_adduction_r	hip_rotation_r	knee_angle_r	knee_angle_r_beta	ankle_angle_r	subtalar_angle_r	mtp_angle_r	hip_flexion_l	hip_adduction_l	hip_rotation_l	knee_angle_l	knee_angle_l_beta	ankle_angle_l	subtalar_angle_l	mtp_angle_l	lumbar_extension	lumbar_bending	lumbar_rotation	arm_flex_r	arm_add_r	arm_rot_r	elbow_flex_r	pro_sup_r	wrist_flex_r	wrist_dev_r	arm_flex_l	arm_add_l	arm_rot_l	elbow_flex_l	pro_sup_l	wrist_flex_l	wrist_dev_l
      2.84500000	     -5.86079585	     -4.52494762	     -0.59631797	      0.98422498	      0.90928153	      0.44791383	      0.35075401	     -3.26755730	    -13.66977447	     31.41678800	     31.41678800	     14.03300196	     -0.48245773	    -15.04166318	     32.55351988	     -6.41629202	     -5.33081064	     29.89477303	     29.89477303	      6.30006084	    -17.19736910	      7.32436526	    -10.19282797	      6.43146596	      2.85983608	     32.76631001	    -12.85613693	     -2.92228750	    110.81142345	     43.48717713	      0.00000000	      0.00000000	     -8.84889757	     -6.35836747	      0.69408828	     26.85981085	     45.03890606	      0.00000000	      0.00000000
      2.85628571	     -6.01415982	     -4.43157849	     -0.89208405	      0.98455162	      0.91055752	      0.44563315	      2.23550520	     -4.04548991	    -12.87128807	     35.29345805	     35.29345805	     11.94516024	     -2.40311887	    -16.04312606	     31.91691501	     -6.29797260	     -5.63589429	     29.80195688	     29.80195688	      7.07472160	    -17.08857248	      7.18035475	    -10.02531101	      6.37236067	      2.72155357	     30.76221161	    -13.22522318	     -2.93009312	    110.13738377	     43.51944272	      0.00000000	      0.00000000	     -7.78814873	     -6.46237871	      0.49895240	     27.51037522	     45.09824500	      0.00000000	      0.00000000
      2.86757143	     -5.98121136	     -4.30663375	     -1.16910414	      0.98483917	      0.91204675	      0.44347376	      4.00424305	     -4.81147809	    -12.09912364	     39.16832006	     39.16832006	      9.70577818	     -4.35961477	    -16.58556819	     31.10617927	     -6.18082248	     -6.09077604	     29.76665784	     29.76665784	      7.79093413	    -16.96244137	      6.95411345	    -10.09309474	      6.22717721	      2.60454825	     28.59872034	    -13.34995383	     -2.88557674	    109.23254868	     43.55481984	      0.00000000	      0.00000000	     -6.57622345	     -6.63969123	      0.28831530	     28.27114476	     45.16006693	      0.00000000	      0.00000000
      2.87885714	     -5.94644852	     -4.20522559	     -1.44351673	      0.98493670	      0.91352783	      0.44151315	      5.88566857	     -5.48760365	    -11.31764936	     43.04809378	     43.04809378	      7.45331676	     -6.16787742	    -16.55946729	     30.23660491	     -6.08013304	     -6.52098979	     29.60079049	     29.60079049	      8.45373346	    -16.76994767	      6.66102504	    -10.18983321	      6.09580078	      2.42767833	     26.43155785	    -13.42264030	     -2.83324026	    108.09292211	     43.59351450	      0.00000000	      0.00000000	     -5.34113806	     -6.87902945	      0.08637489	     29.07593928	     45.21742207	      0.00000000	      0.00000000
      2.89014286	     -5.93154430	     -4.10712914	     -1.68043706	      0.98477894	      0.91492312	      0.43962777	      7.87383475	     -6.06388179	    -10.51672754	     46.85126102	     46.85126102	      5.28667441	     -7.95732546	    -16.02762865	     29.38552955	     -5.97112091	     -6.96447798	     29.37424864	     29.37424864	      9.00080226	    -16.50327959	      6.34117966	    -10.29561942	      6.00385877	      2.24607995	     24.24271366	    -13.48894335	     -2.80198540	    106.68770015	     43.63925351	      0.00000000	      0.00000000	     -4.04133463	     -7.17771507	     -0.12183309	     29.96552128	     45.27446272	      0.00000000	      0.00000000
      2.90142857	     -6.00150015	     -4.08669221	     -1.94578140	      0.98435072	      0.91618907	      0.43802660	     10.05131491	     -6.38662049	     -9.58329603	     50.54898423	     50.54898423	      3.37447445	     -9.77849841	    -14.88792056	     28.58358363	     -5.95652800	     -7.40252491	     29.02635719	     29.02635719	      9.47153455	    -16.16720323	      5.95877629	    -10.31557126	      5.96405004	      2.16666047	     22.06703939	    -13.68702501	     -2.96448222	    104.81639128	     43.70840769	      0.00000000	      0.00000000	     -2.81092293	     -7.50504591	     -0.38225479	     31.02278079	     45.33777866	      0.00000000	      0.00000000
      2.91271429	     -5.93750370	     -4.02615207	     -2.11181978	      0.98390727	      0.91749692	      0.43641105	     12.03481251	     -6.76871918	     -8.91804600	     53.98068641	     53.98068641	      1.74600078	    -11.08358353	    -13.69705240	     27.69884299	     -5.87058475	     -7.79466379	     28.76964877	     28.76964877	      9.92300603	    -15.85703166	      5.58005362	    -10.49472691	      5.87289627	      1.90869395	     19.92034006	    -13.62607251	     -2.95689799	    102.98181363	     43.76722632	      0.00000000	      0.00000000	     -1.35192576	     -7.92678339	     -0.59764281	     32.05846524	     45.39540898	      0.00000000	      0.00000000
      2.92400000	     -5.97723096	     -4.12610984	     -2.32912733	      0.98322282	      0.91869235	      0.43510915	     14.37949959	     -6.80716791	     -8.10460425	     57.69385716	     57.69385716	      2.67618226	    -10.84204204	     -5.95410642	     26.82983139	     -6.01238663	     -8.31194835	     28.28006322	     28.28006322	      9.88223886	    -15.44739656	      3.94030704	    -10.50652934	      5.95185848	      1.20119246	     18.73663264	    -12.80858098	     -4.03181612	     98.56795349	     44.01953994	      0.00000000	      0.00000000	     -1.03168720	     -8.44892476	     -1.43012424	     34.92960460	     45.55810578	      0.00000000	      0.00000000
      2.93528571	     -5.95513860	     -4.06715788	     -2.48261456	      0.98243069	      0.91988239	      0.43364522	     16.39003335	     -7.06441354	     -7.57911626	     60.53494789	     60.53494789	      1.63798454	    -11.65234993	     -5.38928462	     25.96744403	     -5.89140087	     -8.63551017	     27.90823241	     27.90823241	     10.26991156	    -15.19514082	      3.74151660	    -10.69613671	      5.89192386	      1.05841537	     16.52158062	    -13.14230032	     -3.64446079	     96.79802416	     44.06470641	      0.00000000	      0.00000000	      0.55678186	     -8.90681148	     -1.60195078	     35.77103999	     45.60976128	      0.00000000	      0.00000000
      2.94657143	     -5.88348018	     -4.16452789	     -2.60260046	      0.98159743	      0.92115782	      0.43224623	     18.30504669	     -7.07205166	     -7.12242599	     63.07920591	     63.07920591	      1.34411175	    -12.00462387	     -3.57620385	     25.06929008	     -5.94756165	     -8.93965256	     27.56182163	     27.56182163	     10.61792706	    -14.74267422	      3.20095099	    -10.89159432	      5.99129148	      0.99976923	     14.83940730	    -13.34906088	     -3.87378675	     93.10369783	     44.21204141	      0.00000000	      0.00000000	      2.10568113	     -9.35991746	     -1.72774222	     37.04841833	     45.66781127	      0.00000000	      0.00000000
      2.95785714	     -5.85198987	     -4.17662118	     -2.69394369	      0.98064485	      0.92234269	      0.43093043	     20.23947963	     -7.17294397	     -6.78731546	     65.30275417	     65.30275417	      1.27065484	    -12.11836415	     -2.24781408	     24.17892595	     -5.89252284	     -9.24325024	     27.10765537	     27.10765537	     10.91360486	    -14.37559774	      2.75276890	    -11.08251410	      6.01791423	      0.65135853	     13.27996305	    -13.25861142	     -3.99631868	     89.68937560	     44.34702130	      0.00000000	      0.00000000	      3.51566446	     -9.94095882	     -1.76919277	     38.29096259	     45.71427897	      0.00000000	      0.00000000
      2.96914286	     -5.88129553	     -4.14725035	     -2.79921564	      0.97962857	      0.92342881	      0.42962047	     22.17875356	     -7.28152345	     -6.49234462	     67.10164329	     67.10164329	      1.05865513	    -12.30435773	     -2.06897919	     23.33431364	     -5.77896574	     -9.54595328	     26.61207839	     26.61207839	     11.28846333	    -14.00834489	      2.53953725	    -11.25051935	      6.02879946	      0.39465257	     11.39153963	    -13.38289821	     -3.89255022	     87.44410974	     44.41771212	      0.00000000	      0.00000000	      5.04469186	    -10.46896725	     -1.85827264	     39.22894602	     45.75411516	      0.00000000	      0.00000000
      2.98042857	     -5.83566791	     -4.18185529	     -2.89903475	      0.97862375	      0.92462412	      0.42837783	     23.94933566	     -7.30110214	     -6.27816250	     68.47690577	     68.47690577	      1.02315718	    -12.27265178	     -1.93693596	     22.40582201	     -5.73018370	     -9.80748116	     26.10941748	     26.10941748	     11.60838851	    -13.57261467	      2.25689758	    -11.44048827	      6.13474065	      0.46395761	      9.67794334	    -13.65186496	     -4.05743168	     84.05559171	     44.53655610	      0.00000000	      0.00000000	      6.74385970	    -10.91954490	     -1.85506676	     40.38558618	     45.78883211	      0.00000000	      0.00000000
